<svg id="noun_Phone_Book_941962" data-name="noun_Phone Book_941962" xmlns="http://www.w3.org/2000/svg" width="20.747" height="22.294" viewBox="0 0 20.747 22.294">
  <path id="Path_30044" data-name="Path 30044" d="M4.222,0A1.99,1.99,0,0,0,2.863.834,1.762,1.762,0,0,1,3.89.5H18.132a1.912,1.912,0,0,1,1.939,2.011c.071,5.8,0,11.591,0,17.389a1.747,1.747,0,0,1-.417,1.123c.448-.319,1.093-.844,1.093-1.431V2.3A2.381,2.381,0,0,0,18.386,0ZM3.165,1.13A1.761,1.761,0,0,0,1.407,2.887H4.234a.815.815,0,0,1,.815.809v.87a.818.818,0,0,1-.815.815H1.407V18.029H4.234a.813.813,0,0,1,.815.809v.87a.813.813,0,0,1-.815.809H1.516v.012a1.766,1.766,0,0,0,1.758,1.764H17.582A1.766,1.766,0,0,0,19.34,20.53V2.887A1.759,1.759,0,0,0,17.582,1.13H3.165ZM.676,3.074C.4,2.989,0,3.175,0,3.8v.109c0,.748.674.96,1.286.96H3.672a.692.692,0,0,0,.683-.682V4.077A.683.683,0,0,0,3.672,3.4H1.425c-.269,0-.467-.033-.532-.157a.363.363,0,0,0-.217-.169ZM10.944,6.511c2.2,0,1.945,1.221,1.945,2.718s-1.045,2.712-1.945,2.712S9.006,10.726,9.006,9.229s-.26-2.718,1.939-2.718Zm0,5.974c1.834,0,3.666.606,3.666,1.812v.652a.538.538,0,0,1-.538.538H7.816a.543.543,0,0,1-.544-.538V14.3c0-1.206,1.838-1.812,3.672-1.812ZM.676,18.211c-.276-.084-.676.1-.676.725v.109C0,19.793.674,20,1.286,20H3.672a.685.685,0,0,0,.683-.676v-.109a.685.685,0,0,0-.683-.676H1.425c-.269,0-.467-.039-.532-.163a.354.354,0,0,0-.217-.163Z" fill="#ee7c22" fill-rule="evenodd"/>
</svg>
